<?xml version="1.0" encoding="utf-8"?>
<!-- Generator: Adobe Illustrator 20.0.0, SVG Export Plug-In . SVG Version: 6.00 Build 0)  -->
<svg version="1.1" id="Layer_1" xmlns="http://www.w3.org/2000/svg" xmlns:xlink="http://www.w3.org/1999/xlink" x="0px" y="0px"
	 viewBox="0 0 50 57.2" style="enable-background:new 0 0 50 57.2;" xml:space="preserve">
<style type="text/css">
	.st0{fill:#FFFFFF;}
	.st1{fill:url(#SVGID_1_);}
	.st2{fill:url(#SVGID_2_);}
	.st3{opacity:0.3;fill:url(#SVGID_3_);enable-background:new    ;}
</style>
<g>
	<path class="st0" d="M49.2,13.7L25.8,0.2c-0.5-0.3-1.2-0.3-1.7,0L0.8,13.7C0.3,14,0,14.5,0,15.1V42c0,0.6,0.3,1.1,0.8,1.4L24.2,57
		c0.5,0.3,1.2,0.3,1.7,0l23.3-13.5c0.5-0.3,0.8-0.8,0.8-1.4v-27C50,14.5,49.7,14,49.2,13.7z"/>
	<g>
		
			<linearGradient id="SVGID_1_" gradientUnits="userSpaceOnUse" x1="19.7615" y1="44.2374" x2="26.3944" y2="17.9514" gradientTransform="matrix(1 0 0 -1 0 57.89)">
			<stop  offset="1.189366e-02" style="stop-color:#F28830"/>
			<stop  offset="1" style="stop-color:#E62F17"/>
		</linearGradient>
		<path class="st1" d="M4,41.8c-0.6-0.3-0.9-1-0.9-1.6V26.5c0,0-0.1-2.5,0.7-4.6s2.4-4.2,5.5-5.5c6-2.4,11.9,0.8,15.2,5.6
			c2.8,4,4.4,5.6,8,8.3c3.1,2.4,12.9,6.7,14.4-1.9v11.8c0,0.7-0.4,1.3-0.9,1.6L26,53.3c-0.6,0.3-1.3,0.3-1.9,0L4,41.8z"/>
		
			<linearGradient id="SVGID_2_" gradientUnits="userSpaceOnUse" x1="24.999" y1="36.5255" x2="24.999" y2="5.2063" gradientTransform="matrix(1 0 0 -1 0 57.89)">
			<stop  offset="0" style="stop-color:#F2BB30"/>
			<stop  offset="0.3095" style="stop-color:#F28830"/>
			<stop  offset="1" style="stop-color:#E62F17"/>
		</linearGradient>
		<path class="st2" d="M4.1,41.8l20,11.5c0.6,0.3,1.3,0.3,1.9,0l20-11.5c0.6-0.3,0.9-1,0.9-1.6V28.3c0-8.7-9.7-9.5-14.8-2.5
			c-4,5.5-5.7,7.5-11.1,9.4c-6.2,2.3-11.8,1-15-2.1c-3.1-3-2.9-6.7-2.9-6.7v13.7C3.1,40.8,3.5,41.4,4.1,41.8z"/>
		
			<linearGradient id="SVGID_3_" gradientUnits="userSpaceOnUse" x1="37.0879" y1="22.7308" x2="39.431" y2="33.6092" gradientTransform="matrix(1 0 0 -1 0 57.89)">
			<stop  offset="0" style="stop-color:#FFFFFF"/>
			<stop  offset="1" style="stop-color:#FFFFFF;stop-opacity:0"/>
		</linearGradient>
		<path class="st3" d="M46.9,28.3c0-8.7-9.7-9.5-14.8-2.5c-0.7,1-1.3,1.8-1.9,2.6c0.7,0.6,1.4,1.2,2.3,1.8
			C35.6,32.6,45.4,36.9,46.9,28.3z"/>
	</g>
</g>
</svg>
